<svg aria-hidden="true" style="position:absolute;width:0;height:0;overflow:hidden" xmlns="http://www.w3.org/2000/svg">
    <defs>       
<symbol id="facebook" viewBox="0 0 32 32">
<path d="M21.329 5.313h2.921v-5.088c-0.504-0.069-2.237-0.225-4.256-0.225-4.212 0-7.097 2.649-7.097 7.519v4.481h-4.648v5.688h4.648v14.312h5.699v-14.311h4.46l0.708-5.688h-5.169v-3.919c0.001-1.644 0.444-2.769 2.735-2.769z"></path>
</symbol>
<symbol id="instagram" viewBox="0 0 32 32">
<path d="M31.969 9.408c-0.075-1.7-0.35-2.869-0.744-3.882-0.406-1.075-1.032-2.038-1.851-2.838-0.8-0.813-1.769-1.444-2.832-1.844-1.019-0.394-2.182-0.669-3.882-0.744-1.713-0.081-2.257-0.1-6.601-0.1s-4.888 0.019-6.595 0.094c-1.7 0.075-2.869 0.35-3.882 0.744-1.075 0.406-2.038 1.031-2.838 1.85-0.813 0.8-1.444 1.769-1.844 2.832-0.394 1.019-0.669 2.182-0.744 3.882-0.081 1.713-0.1 2.257-0.1 6.601s0.019 4.888 0.094 6.595c0.075 1.7 0.35 2.869 0.744 3.882 0.406 1.075 1.038 2.038 1.85 2.838 0.8 0.813 1.769 1.444 2.832 1.844 1.019 0.394 2.182 0.669 3.882 0.744 1.706 0.075 2.25 0.094 6.595 0.094s4.888-0.019 6.595-0.094c1.7-0.075 2.869-0.35 3.882-0.744 2.151-0.832 3.851-2.532 4.682-4.682 0.394-1.019 0.669-2.182 0.744-3.882 0.075-1.707 0.094-2.251 0.094-6.595s-0.006-4.888-0.081-6.595zM29.087 22.473c-0.069 1.563-0.331 2.407-0.55 2.969-0.538 1.394-1.644 2.5-3.038 3.038-0.563 0.219-1.413 0.481-2.969 0.55-1.688 0.075-2.194 0.094-6.464 0.094s-4.782-0.019-6.464-0.094c-1.563-0.069-2.407-0.331-2.969-0.55-0.694-0.256-1.325-0.663-1.838-1.194-0.531-0.519-0.938-1.144-1.194-1.838-0.219-0.563-0.481-1.413-0.55-2.969-0.075-1.688-0.094-2.194-0.094-6.464s0.019-4.782 0.094-6.464c0.069-1.563 0.331-2.407 0.55-2.969 0.256-0.694 0.663-1.325 1.2-1.838 0.519-0.531 1.144-0.938 1.838-1.194 0.563-0.219 1.413-0.481 2.969-0.55 1.688-0.075 2.194-0.094 6.464-0.094 4.276 0 4.782 0.019 6.464 0.094 1.563 0.069 2.407 0.331 2.969 0.55 0.694 0.256 1.325 0.662 1.838 1.194 0.531 0.519 0.938 1.144 1.194 1.838 0.219 0.563 0.481 1.413 0.55 2.969 0.075 1.688 0.094 2.194 0.094 6.464s-0.019 4.77-0.094 6.458z"></path>
<path d="M16.059 7.783c-4.538 0-8.22 3.682-8.22 8.22s3.682 8.22 8.22 8.22c4.539 0 8.22-3.682 8.22-8.22s-3.682-8.22-8.22-8.22zM16.059 21.335c-2.944 0-5.332-2.388-5.332-5.332s2.388-5.332 5.332-5.332c2.944 0 5.332 2.388 5.332 5.332s-2.388 5.332-5.332 5.332z"></path>
<path d="M26.524 7.458c0 1.060-0.859 1.919-1.919 1.919s-1.919-0.859-1.919-1.919c0-1.060 0.859-1.919 1.919-1.919s1.919 0.859 1.919 1.919z"></path>
</symbol>
<symbol id="telegram" viewBox="0 0 32 32">
<path  d="M32 0l-32 18 10.227 3.787 15.773-14.787-11.997 16.187 0.009 0.003-0.012-0.003v8.813l5.735-6.691 7.267 2.691 4.999-28z"></path>
</symbol>
<symbol id="close_button" viewBox="0 0 32 32">
<path d="M23.734 10.304l-1.504-1.504-5.963 5.962-5.962-5.962-1.504 1.504 5.962 5.962-5.962 5.963 1.504 1.504 5.962-5.963 5.963 5.963 1.504-1.504-5.963-5.963 5.963-5.962z"></path>
</symbol>
<symbol id="smartphone" viewBox="0 0 20 32">
<path  d="M17 0h-14c-1.654 0-3 1.346-3 3v26c0 1.654 1.346 3 3 3h14c1.654 0 3-1.346 3-3v-26c0-1.654-1.346-3-3-3zM3 2h14c0.552 0 1 0.448 1 1v21h-16v-21c0-0.552 0.448-1 1-1zM17 30h-14c-0.552 0-1-0.448-1-1v-3h16v3c0 0.552-0.448 1-1 1z"></path>
<path fill="#757575" style="fill: var(--color3, #757575)" d="M4.707 27.478c0.391 0.365 0.391 0.956 0 1.321s-1.024 0.365-1.414 0c-0.391-0.365-0.391-0.956 0-1.321s1.024-0.365 1.414 0z"></path>
</symbol>
<symbol id="icon-check" viewBox="0 0 34 32">
<path    d="M8.442 16.538l-0.147-0.141-0.147 0.139-2.057 1.95 0.162 0.156 7.605 7.253 0.147-0.141 16.171-15.426-0.162-0.154-2.029-1.935-0.147 0.141-13.98 13.325-5.417-5.167z"></path>
</symbol>
<symbol id="menu_mobile" viewBox="0 0 32 32">
<path d="M6.4 11.734v-2.134h19.2v2.134h-19.2zM6.4 17.066h19.2v-2.133h-19.2v2.133zM6.4 22.4h19.2v-2.134h-19.2v2.134z"></path>
</symbol>
<symbol id="catalog" viewBox="0 0 69 32">
<path  d="M34.667 32l34.667-32h-69.333l34.667 32z"></path>
</symbol>
<symbol id="delivery" viewBox="0 0 64 64"><path d="M52 40a11.98 11.98 0 0 0-1.83.155l-4.038-16.73a2.762 2.762 0 0 0-1.112-3.25l-11.948-7.731a4.862 4.862 0 0 0-2.258-.758 2.999 2.999 0 0 0-1.357-3.612L17.24 1.237a3.004 3.004 0 0 0-4.083 1.153l-1.953 3.49L3.39 19.844a3.003 3.003 0 0 0 1.153 4.083l12.217 6.837a2.98 2.98 0 0 0 1.46.381 3.016 3.016 0 0 0 .71-.093 4.877 4.877 0 0 0 1.64 1.864l4.368 2.912-5.788 6.558A11.99 11.99 0 1 0 23.95 53h5.234A2.993 2.993 0 0 0 35 52v-1.888l12.183-13.807 1.04 4.313A11.978 11.978 0 1 0 52 40zM14.902 3.367a.996.996 0 0 1 .601-.474 1.01 1.01 0 0 1 .274-.038.998.998 0 0 1 .487.127L28.48 9.82a1 1 0 0 1 .385 1.362L27.4 13.798 13.437 5.985zm2.834 25.65L5.52 22.182a1 1 0 0 1-.384-1.362L12.46 7.73l13.963 7.813-7.325 13.09a1 1 0 0 1-1.362.385zM29 38.536V51h-5.05a11.95 11.95 0 0 0-3.298-7.294l5.964-6.76zm-9.677 6.677A9.956 9.956 0 0 1 21.949 51h-7.733zM12 62a10 10 0 1 1 5.824-18.113l-6.574 7.451A1 1 0 0 0 12 53h9.95A10.013 10.013 0 0 1 12 62zm21-10a1 1 0 0 1-2 0V38a1 1 0 0 0-.445-.832l-8.876-5.917a2.942 2.942 0 0 1-1.079-1.32 2.904 2.904 0 0 0 .243-.32l7.813-13.963 1.082-1.933a3.043 3.043 0 0 1 .626-.075 2.976 2.976 0 0 1 1.62.483l11.948 7.73a.79.79 0 1 1-.868 1.321l-7.51-5.006a1 1 0 0 0-1.432.353l-6 11a1 1 0 0 0 .064 1.06L33 37.32zm2-4.911V37a1 1 0 0 0-.186-.581l-.3-.419h10.27zM33.086 34l-2.908-4.071 5.176-9.49 6.602 4.4a2.785 2.785 0 0 0 2.527.282L46.626 34zM52 62a9.993 9.993 0 0 1-3.304-19.427l2.332 9.662a1 1 0 0 0 1.944-.47l-2.332-9.661A9.995 9.995 0 1 1 52 62zM40 12a6 6 0 1 0-6-6 6.007 6.007 0 0 0 6 6zm0-10a4 4 0 1 1-4 4 4.005 4.005 0 0 1 4-4zM20.281 23.42a1 1 0 0 0 .49-1.872l-.078-.043a5.95 5.95 0 0 0-1.892-6.677l.048-.085a1 1 0 1 0-1.745-.976l-.043.077a5.95 5.95 0 0 0-6.677 1.892l-.085-.048a1 1 0 1 0-.977 1.745l10.472 5.86a.996.996 0 0 0 .487.128zm-6.321-7.78a3.978 3.978 0 0 1 4.942 4.862l-6.734-3.768a3.966 3.966 0 0 1 1.792-1.093z"/></symbol>
    </defs>
</svg>